<svg width="42" height="56" viewBox="0 0 42 56" fill="none" xmlns="http://www.w3.org/2000/svg">
<path d="M29.1672 28.0008H28.0005V24.5008C28.0005 21.927 25.9075 19.834 23.3337 19.834H18.667C16.0932 19.834 14.0002 21.927 14.0002 24.5008V28.0008H12.8335C10.2597 28.0008 8.16675 30.0938 8.16675 32.6676V51.3347C8.16675 53.9085 10.2597 56.0014 12.8335 56.0014H29.1672C31.741 56.0014 33.834 53.9085 33.834 51.3347V32.6676C33.834 30.0938 31.741 28.0008 29.1672 28.0008ZM18.667 24.5008H23.3337V28.0008H18.667V24.5008ZM29.1672 51.3347H12.8335L12.8312 32.6676H29.1672V51.3347Z" fill="white"/>
<path d="M21.0004 0C13.2967 0 6.06585 3.15941 0.63857 8.89717C-0.247273 9.83314 -0.206256 11.3086 0.729148 12.1956C1.66626 13.0809 3.14343 13.0415 4.02756 12.1033C8.56615 7.30835 14.5933 4.66677 21.0004 4.66677C27.4081 4.66677 33.4353 7.30835 37.9727 12.1033C38.4307 12.5887 39.0494 12.8336 39.6675 12.8336C40.2429 12.8336 40.8194 12.6211 41.2706 12.1956C42.2065 11.3086 42.247 9.83314 41.3617 8.89717C35.9356 3.15941 28.7041 0 21.0004 0Z" fill="white"/>
<path d="M21.0004 9.33374C15.8995 9.33374 11.1188 11.7047 7.53898 16.0097C6.71466 16.9998 6.85081 18.4702 7.84148 19.2951C8.83214 20.1188 10.303 19.9821 11.1268 18.9914C13.8054 15.7739 17.31 14.0005 21.0004 14.0005C24.6907 14.0005 28.1954 15.7739 30.8728 18.9914C31.3348 19.548 31.9991 19.834 32.6684 19.834C33.1948 19.834 33.7235 19.6579 34.1598 19.2951C35.1499 18.4702 35.2855 16.9987 34.4618 16.0097C30.8825 11.7047 26.1012 9.33374 21.0004 9.33374Z" fill="#60AC76"/>
</svg>
