<svg width="62" height="62" viewBox="0 0 62 62" fill="none" xmlns="http://www.w3.org/2000/svg">
<path d="M54.9544 52.2662C53.1975 57.8728 47.7459 61.955 41.3125 61.955H40.0723C32.2179 61.955 25.8362 55.8834 25.8362 48.3907C25.8362 47.3313 26.7146 46.4529 27.774 46.4529C28.8333 46.4529 29.7117 47.3313 29.7117 48.3907C29.7117 53.7389 34.3624 58.0795 40.0723 58.0795H41.3125C45.7048 58.0795 49.477 55.4958 50.9497 51.8786C51.8023 52.137 52.6808 52.2662 53.6109 52.2662H54.9027H54.9544Z" fill="white"/>
<path d="M51.0272 42.5774C49.9575 42.5774 49.0894 41.7092 49.0894 40.6396V35.4722C49.0894 34.4025 49.9575 33.5344 51.0272 33.5344C52.0968 33.5344 52.965 34.4025 52.965 35.4722V40.6396C52.965 41.7092 52.0968 42.5774 51.0272 42.5774Z" fill="#60AC76"/>
<path d="M57.4879 42.5774C56.4183 42.5774 55.5502 41.7092 55.5502 40.6396V35.4722C55.5502 34.4025 56.4183 33.5344 57.4879 33.5344C58.5576 33.5344 59.4257 34.4025 59.4257 35.4722V40.6396C59.4257 41.7092 58.5576 42.5774 57.4879 42.5774Z" fill="#60AC76"/>
<path d="M1.36951 23.8972L22.6591 2.60754C11.3426 3.51184 2.2738 12.5806 1.36951 23.8972Z" fill="#60AC76"/>
<path d="M47.7463 24.2848L23.2529 48.7782C23.1753 48.8557 23.0978 48.9332 23.0203 48.9849C23.5112 49.0107 24.028 49.0366 24.5447 49.0366C37.3598 49.0366 47.798 38.5985 47.798 25.7833C47.798 25.2666 47.7721 24.7757 47.7463 24.2848Z" fill="#60AC76"/>
<path d="M46.9974 13.1465L35.5 1.64904C33.3038 -0.549681 29.4748 -0.549681 27.2786 1.64904L1.70265 27.225C0.604584 28.3231 0 29.7855 0 31.3357C0 32.8885 0.604584 34.3509 1.70265 35.4463L13.1975 46.9438C14.3292 48.078 15.82 48.6439 17.3107 48.6439C18.799 48.6439 20.2872 48.078 21.4214 46.9438L46.9974 21.3678C48.0955 20.2697 48.7001 18.8099 48.7001 17.2571C48.7026 15.7043 48.0955 14.2446 46.9974 13.1465ZM44.2587 18.6265L22.7908 40.0944L8.55203 25.8583L30.0199 4.39034C30.3868 4.02346 30.8726 3.82193 31.3893 3.82193C31.906 3.82193 32.3944 4.02346 32.7587 4.39034L44.2561 15.8878C44.623 16.2547 44.8245 16.7404 44.8245 17.2571C44.8245 17.7739 44.623 18.2596 44.2587 18.6265Z" fill="white"/>
<path d="M54.9035 49.6825H53.6116C49.6922 49.6825 46.5065 46.4968 46.5065 42.5773V40.6396C46.5065 39.5699 47.3746 38.7018 48.4442 38.7018H60.0709C61.1405 38.7018 62.0086 39.5699 62.0086 40.6396V42.5773C62.0086 46.4968 58.8229 49.6825 54.9035 49.6825Z" fill="#60AC76"/>
</svg>
