<svg width="55" height="63" viewBox="0 0 55 63" fill="none" xmlns="http://www.w3.org/2000/svg">
<path d="M6.61922 31.0537C6.61922 22.2944 12.0412 14.7787 19.7046 11.6836L23.6149 3.82922C10.2848 5.72294 0 17.2087 0 31.0537C0 43.6499 8.51336 54.2944 20.0879 57.5378L20.84 50.8454C12.5819 48.0591 6.61922 40.2397 6.61922 31.0537Z" fill="#60AC76"/>
<path d="M55 31.0537C55 18.46 46.4904 7.81756 34.9197 4.57166L34.1507 11.2591C42.4135 14.0427 48.3808 21.8644 48.3808 31.0537C48.3808 39.7619 43.0219 47.2408 35.4292 50.3692L31.4105 58.2745C44.7282 56.37 55 44.8898 55 31.0537Z" fill="#60AC76"/>
<path d="M43.2408 27.7211C43.5014 27.2083 43.4768 26.6451 43.1758 26.1548C42.875 25.6644 42.341 25.4689 41.7655 25.4689H29.1846L31.8929 1.92371C31.9852 1.12548 31.4904 0.298486 30.7197 0.0697087C30.5606 0.0225467 30.3995 0 30.2404 0C29.6294 0 29.0518 0.347716 28.7674 0.918831L11.7533 35.1063C11.4981 35.6191 11.5262 36.3019 11.8278 36.7892C12.1296 37.2764 12.6616 37.6731 13.2348 37.6731H25.6498L23.1047 60.3322C23.0157 61.1273 23.5082 61.796 24.2748 62.0252C24.4322 62.0724 24.5917 62.0852 24.7491 62.0852C25.3589 62.0852 25.9364 61.7466 26.2246 61.1796L43.2408 27.7211Z" fill="white"/>
</svg>
